<?xml version="1.0" encoding="utf-8"?>

<!DOCTYPE svg PUBLIC "-//W3C//DTD SVG 1.1//EN" "http://www.w3.org/Graphics/SVG/1.1/DTD/svg11.dtd">
<!-- Uploaded to: SVG Repo, www.svgrepo.com, Generator: SVG Repo Mixer Tools -->
<svg height="800px" width="800px" version="1.1" id="_x32_" xmlns="http://www.w3.org/2000/svg" xmlns:xlink="http://www.w3.org/1999/xlink" 
	 viewBox="0 0 512 512"  xml:space="preserve">
<style type="text/css">
	.st0{fill:#4A90D9;}
</style>
<g>
	<path class="st0" d="M357.619,47.36C208.406,61.014,79.864,180.822,76.257,343.16c-0.67,29.735,75.749,61.321,147.9,61.321
		c72.142,0,129.855-10.822,151.508-50.5c17.27-31.67-10.822-75.758-3.608-162.328C379.271,105.073,415.342,40.146,357.619,47.36z"/>
	<path class="st0" d="M127.512,457.501c-7.12-2.484-17.676-5.836-30.528-11.831c-12.776-6.006-27.969-14.779-42.408-28.744
		c-14.276-13.824-28.12-33.304-34.267-57.808c-1.482-6.081-2.342-12.106-2.53-17.876c-0.095-5.883,0.141-12.002,0.698-17.676
		c1.086-11.463,3.418-22.058,6.534-31.604c6.204-19.17,15.392-34.07,23.909-45.269c8.584-11.217,16.478-18.932,21.774-24.239
		c5.326-5.306,8.084-8.32,7.384-9.376c-0.652-1.02-2.871-1.068-7.686,1.001c-4.75,2.115-12.229,6.242-22.2,14.881
		c-9.764,8.688-22.474,22.021-33.116,43.814c-5.27,10.85-9.887,23.833-12.587,38.913c-1.35,7.545-2.229,15.59-2.418,24.098
		c-0.358,8.621,0.595,18.262,2.918,27.573c4.683,18.828,13.22,34.172,22.473,46.466c9.358,12.304,19.594,21.605,29.357,28.715
		c19.735,14.136,37.062,19.953,49.668,23.21c12.748,3.126,21.218,3.57,26.412,3.409c5.193-0.218,7.185-1.19,7.346-2.389
		C138.418,461.514,134.65,459.937,127.512,457.501z"/>
	<path class="st0" d="M429.61,278.129c-5.316-4.05-10.019-5.467-13.182-5.675c-3.211-0.17-4.948,0.783-5.269,2.162
		c-0.746,3.051,1.652,5.76,7.544,12.417c2.861,3.456,6.534,8.159,10.019,15.77c3.418,7.554,6.741,18.281,7.138,32.266
		c0.34,13.993-2.446,24.825-5.533,32.539c-3.164,7.771-6.695,12.738-9.434,16.44c-5.656,7.234-7.799,10.302-6.798,13.22
		c0.68,2.493,7.686,3.438,18.11-5.09c5.062-4.296,10.604-11.34,14.702-21.255c4.099-9.868,6.685-22.511,6.326-36.562
		c-0.377-14.041-3.616-26.345-8.092-35.892C440.658,288.884,434.889,282.123,429.61,278.129z"/>
	<path class="st0" d="M502.913,309.082c-4.221-4.806-7.904-5.835-9.404-4.523c-1.634,1.35-2.03,3.531-0.917,7.781
		c0.917,4.296,3.778,10.896,4.42,22.624c0.302,11.738-2.049,18.47-2.673,22.804c-0.822,4.306-0.273,6.469,1.445,7.705
		c1.577,1.199,5.184-0.075,9.084-5.165c3.814-5.023,7.563-14.136,7.091-25.948C511.459,322.547,507.058,313.812,502.913,309.082z"/>
</g>
</svg>